HIERARCHY
ROOT hip
{
  OFFSET 0 0 0
  CHANNELS 6 Xposition Yposition Zposition Zrotation Yrotation Xrotation
  JOINT abdomen
  {
    OFFSET 0 20.6881 -0.73152
    CHANNELS 3 Zrotation Xrotation Yrotation
    JOINT chest
    {
      OFFSET 0 11.7043 -0.48768
      CHANNELS 3 Zrotation Xrotation Yrotation
      JOINT neck
      {
        OFFSET 0 22.1894 -2.19456
        CHANNELS 3 Zrotation Xrotation Yrotation
        JOINT head
        {
          OFFSET -0.24384 7.07133 1.2192
          CHANNELS 3 Zrotation Xrotation Yrotation
          JOINT leftEye
          {
            OFFSET 4.14528 8.04674 8.04672
            CHANNELS 3 Zrotation Xrotation Yrotation
            End Site
            {
              OFFSET 1 0 0
            }
          }
          JOINT rightEye
          {
            OFFSET -3.6576 8.04674 8.04672
            CHANNELS 3 Zrotation Xrotation Yrotation
            End Site
            {
              OFFSET 1 0 0
            }
          }
        }
      }
      JOINT rCollar
      {
        OFFSET -2.68224 19.2634 -4.8768
        CHANNELS 3 Zrotation Xrotation Yrotation
        JOINT rShldr
        {
          OFFSET -8.77824 -1.95073 1.46304
          CHANNELS 3 Zrotation Xrotation Yrotation
          JOINT rForeArm
          {
            OFFSET -28.1742 -1.7115 0.48768
            CHANNELS 3 Zrotation Xrotation Yrotation
            JOINT rHand
            {
              OFFSET -22.5879 0.773209 7.07136
              CHANNELS 3 Zrotation Xrotation Yrotation
              JOINT rThumb1
              {
                OFFSET -1.2192 -0.487915 3.41376
                CHANNELS 3 Zrotation Xrotation Yrotation
                JOINT rThumb2
                {
                  OFFSET -3.37035 -0.52449 3.41376
                  CHANNELS 3 Zrotation Xrotation Yrotation
                  End Site
                  {
                    OFFSET -1.78271 -1.18214 1.43049
                  }
                }
              }
              JOINT rIndex1
              {
                OFFSET -7.75947 0.938293 5.60832
                CHANNELS 3 Zrotation Xrotation Yrotation
                JOINT rIndex2
                {
                  OFFSET -2.54057 -0.884171 1.56538
                  CHANNELS 3 Zrotation Xrotation Yrotation
                  End Site
                  {
                    OFFSET -1.62519 -0.234802 1.16502
                  }
                }
              }
              JOINT rMid1
              {
                OFFSET -8.24714 1.18213 3.41376
                CHANNELS 3 Zrotation Xrotation Yrotation
                JOINT rMid2
                {
                  OFFSET -3.10165 -0.590103 1.0647
                  CHANNELS 3 Zrotation Xrotation Yrotation
                  End Site
                  {
                    OFFSET -2.48547 -0.328903 0.83742
                  }
                }
              }
              JOINT rRing1
              {
                OFFSET -8.82822 0.546677 1.51678
                CHANNELS 3 Zrotation Xrotation Yrotation
                JOINT rRing2
                {
                  OFFSET -2.60934 -0.819778 -0.0198488
                  CHANNELS 3 Zrotation Xrotation Yrotation
                  End Site
                  {
                    OFFSET -2.33842 -0.294052 0.168128
                  }
                }
              }
              JOINT rPinky1
              {
                OFFSET -8.27202 -0.0477905 -0.4584
                CHANNELS 3 Zrotation Xrotation Yrotation
                JOINT rPinky2
                {
                  OFFSET -1.82734 -0.647385 -0.700984
                  CHANNELS 3 Zrotation Xrotation Yrotation
                  End Site
                  {
                    OFFSET -1.69225 -0.51767 -0.607171
                  }
                }
              }
            }
          }
        }
      }
      JOINT lCollar
      {
        OFFSET 2.68224 19.2634 -4.8768
        CHANNELS 3 Zrotation Xrotation Yrotation
        JOINT lShldr
        {
          OFFSET 8.77824 -1.95073 1.46304
          CHANNELS 3 Zrotation Xrotation Yrotation
          JOINT lForeArm
          {
            OFFSET 28.1742 -1.7115 0.48768
            CHANNELS 3 Zrotation Xrotation Yrotation
            JOINT lHand
            {
              OFFSET 22.5879 0.773209 7.07136
              CHANNELS 3 Zrotation Xrotation Yrotation
              JOINT lThumb1
              {
                OFFSET 1.2192 -0.487915 3.41376
                CHANNELS 3 Zrotation Xrotation Yrotation
                JOINT lThumb2
                {
                  OFFSET 3.37035 -0.52449 3.41376
                  CHANNELS 3 Zrotation Xrotation Yrotation
                  End Site
                  {
                    OFFSET 1.78271 -1.18214 1.43049
                  }
                }
              }
              JOINT lIndex1
              {
                OFFSET 7.75947 0.938293 5.60832
                CHANNELS 3 Zrotation Xrotation Yrotation
                JOINT lIndex2
                {
                  OFFSET 2.54057 -0.884171 1.56538
                  CHANNELS 3 Zrotation Xrotation Yrotation
                  End Site
                  {
                    OFFSET 1.62519 -0.234802 1.16502
                  }
                }
              }
              JOINT lMid1
              {
                OFFSET 8.24714 1.18213 3.41376
                CHANNELS 3 Zrotation Xrotation Yrotation
                JOINT lMid2
                {
                  OFFSET 3.10165 -0.590103 1.0647
                  CHANNELS 3 Zrotation Xrotation Yrotation
                  End Site
                  {
                    OFFSET 2.48547 -0.328903 0.83742
                  }
                }
              }
              JOINT lRing1
              {
                OFFSET 8.82822 0.546677 1.51678
                CHANNELS 3 Zrotation Xrotation Yrotation
                JOINT lRing2
                {
                  OFFSET 2.60934 -0.819778 -0.0198488
                  CHANNELS 3 Zrotation Xrotation Yrotation
                  End Site
                  {
                    OFFSET 2.33842 -0.294052 0.168128
                  }
                }
              }
              JOINT lPinky1
              {
                OFFSET 8.27202 -0.0477905 -0.4584
                CHANNELS 3 Zrotation Xrotation Yrotation
                JOINT lPinky2
                {
                  OFFSET 1.82734 -0.647385 -0.700984
                  CHANNELS 3 Zrotation Xrotation Yrotation
                  End Site
                  {
                    OFFSET 1.69225 -0.51767 -0.607171
                  }
                }
              }
            }
          }
        }
      }
    }
  }
  JOINT rButtock
  {
    OFFSET -8.77824 4.35084 1.2192
    CHANNELS 3 Zrotation Xrotation Yrotation
    JOINT rThigh
    {
      OFFSET 0 -1.70687 -2.19456
      CHANNELS 3 Zrotation Xrotation Yrotation
      JOINT rShin
      {
        OFFSET 0 -36.8199 0.73152
        CHANNELS 3 Zrotation Xrotation Yrotation
        JOINT rFoot
        {
          OFFSET 0.73152 -45.1104 -5.12064
          CHANNELS 3 Zrotation Xrotation Yrotation
          End Site
          {
            OFFSET -1.1221 -3.69964 12.103
          }
        }
      }
    }
  }
  JOINT lButtock
  {
    OFFSET 8.77824 4.35084 1.2192
    CHANNELS 3 Zrotation Xrotation Yrotation
    JOINT lThigh
    {
      OFFSET 0 -1.70687 -2.19456
      CHANNELS 3 Zrotation Xrotation Yrotation
      JOINT lShin
      {
        OFFSET 0 -36.8199 0.73152
        CHANNELS 3 Zrotation Xrotation Yrotation
        JOINT lFoot
        {
          OFFSET -0.73152 -45.1104 -5.12064
          CHANNELS 3 Zrotation Xrotation Yrotation
          End Site
          {
            OFFSET 1.1221 -3.69964 12.103
          }
        }
      }
    }
  }
}
MOTION
Frames:	4
Frame Time:	0.00833333
-9.0545 80.7401 38.7741 0.0 0.0 0.0 -3.13122 0.00208551 -0.0845035 -0.863233 0.0181967 -0.149332 -3.61072e-14 -7.95139e-16 1.98784e-16 -1.08049e-13 3.18055e-15 4.47265e-16 -0.0 0.0 0.0 -0.0 0.0 0.0 -1.81412e-14 -2.98953e-17 1.98785e-16 -3.76624e-13 -8.88319e-16 1.39149e-15 -6.49693e-12 1.92642e-12 1.17681e-13 -7.45122e-11 -2.09181e-12 1.49486e-13 -1.75721e-10 -3.55137e-13 6.17028e-13 -3.03466e-10 -6.07486e-13 1.05753e-12 -1.75711e-10 -3.51451e-13 6.04305e-13 7.73091 5.47488 0.417314 -1.75721e-10 -3.54731e-13 6.13847e-13 2.90554 0.965183 0.102902 -1.75709e-10 -3.54234e-13 6.11462e-13 10.2786 0.731801 0.0259123 -1.75726e-10 -3.54632e-13 6.20208e-13 2.22167 -0.733487 -0.20892 -1.81382e-14 -3.14484e-17 -9.93923e-17 -3.82163e-13 -7.82715e-16 -7.95139e-16 -6.52481e-12 -1.96717e-12 7.63333e-14 -7.44501e-11 1.80303e-12 2.06736e-13 -1.75647e-10 -3.55164e-13 6.04305e-13 -3.03327e-10 -6.10667e-13 1.06867e-12 -1.75655e-10 -3.52644e-13 6.10667e-13 -7.73091 5.47488 -0.417314 -1.7565e-10 -3.54334e-13 6.04305e-13 -2.90554 0.965183 -0.102902 -1.75661e-10 -3.54035e-13 6.09076e-13 -10.2786 0.731801 -0.0259123 -1.75648e-10 -3.57415e-13 6.01125e-13 -2.22167 -0.733487 0.20892 -2.03217e-16 0.0 -3.88251e-19 -1.91852 -1.93503 0.0146201 -0.0085026 -2.07867 -0.0697786 -0.458944 4.0001 0.1325 2.03217e-16 0.0 3.88251e-19 -2.83795 -9.32629 0.322334 -0.00902665 11.3079 -0.235096 0.527061 -1.99512 -0.0183325
-8.91298 78.1628 27.3706 -176.389 -9.7253 -176.459 -4.2417 10.1036 0.69425 0.718548 -1.71791 -0.330973 -4.67959 2.81135 -2.01626 13.2828 -15.6885 0.681958 -0.0 0.0 0.0 -0.0 0.0 0.0 -8.2579e-15 -1.35639e-14 -2.26028e-14 15.9689 -2.17383 1.62494 -17.6808 -15.2096 15.0481 0.155771 -8.81554 -1.1876 -1.6435e-10 -1.77097e-09 -9.40114e-10 -2.61109e-10 -3.10814e-09 -1.6233e-09 -1.64341e-10 -1.77096e-09 -9.40122e-10 7.73091 5.47488 0.417314 -1.64349e-10 -1.77097e-09 -9.40117e-10 2.90554 0.965183 0.102902 -1.6434e-10 -1.77097e-09 -9.40116e-10 10.2786 0.731801 0.0259123 -1.64354e-10 -1.77097e-09 -9.40106e-10 2.22167 -0.733487 -0.20892 -8.28719e-15 -1.35652e-14 -2.28556e-14 -17.3212 14.1847 3.42529 20.1491 -17.9096 -15.1676 -0.0896604 -6.65042 0.912072 4.41589e-10 1.30895e-09 1.25294e-09 7.38214e-10 2.23247e-09 2.17651e-09 4.41582e-10 1.30895e-09 1.25295e-09 -7.73091 5.47488 -0.417314 4.41587e-10 1.30895e-09 1.25294e-09 -2.90554 0.965183 -0.102902 4.4158e-10 1.30895e-09 1.25295e-09 -10.2786 0.731801 -0.0259123 4.4159e-10 1.30895e-09 1.25294e-09 -2.22167 -0.733487 0.20892 -2.03217e-16 0.0 -3.88251e-19 -5.41045 -13.2517 -7.41418 -0.102743 16.2337 0.129248 -1.01223 0.217482 -2.78885 2.03217e-16 0.0 3.88251e-19 3.19074 -18.8798 5.71585 0.0302005 24.594 -0.427531 0.200239 -4.55845 -1.93665
-8.53261 77.3962 27.7535 -176.083 -9.7441 -176.297 -5.71762 20.7253 1.56013 2.38088 -3.55082 -0.528747 -9.43279 5.75761 -4.16857 27.7334 -32.1495 1.5581 -0.0 0.0 0.0 -0.0 0.0 0.0 7.69879e-15 -2.92344e-14 -4.9457e-14 33.0019 -4.34491 3.38117 -27.1391 -27.5868 34.1628 -0.0957099 -18.0191 -2.52663 -1.57919e-10 -3.7736e-09 -2.00387e-09 -2.24129e-10 -6.62318e-09 -3.46018e-09 -1.57911e-10 -3.77359e-09 -2.00388e-09 7.73091 5.47488 0.417314 -1.57918e-10 -3.7736e-09 -2.00388e-09 2.90554 0.965183 0.102902 -1.57912e-10 -3.7736e-09 -2.00387e-09 10.2786 0.731801 0.0259123 -1.57922e-10 -3.7736e-09 -2.00386e-09 2.22167 -0.733487 -0.20892 7.63609e-15 -2.92353e-14 -4.96589e-14 -37.7927 29.046 7.85746 30.007 -32.3296 -35.8612 0.0518491 -13.6736 1.9178 1.12715e-09 2.78414e-09 2.66616e-09 1.89468e-09 4.74839e-09 4.63124e-09 1.12714e-09 2.78414e-09 2.66618e-09 -7.73091 5.47488 -0.417314 1.12714e-09 2.78414e-09 2.66616e-09 -2.90554 0.965183 -0.102902 1.12714e-09 2.78414e-09 2.66617e-09 -10.2786 0.731801 -0.0259123 1.12715e-09 2.78414e-09 2.66616e-09 -2.22167 -0.733487 0.20892 -2.03217e-16 0.0 -3.88251e-19 -12.4907 -24.4722 -16.3749 -0.365785 35.5822 0.404435 -2.00894 -3.76953 -5.85471 2.03217e-16 0.0 3.88251e-19 11.6979 -28.5009 12.2288 0.197479 38.5567 -0.710198 -0.324672 -7.27045 -3.94812
-8.19034 76.595 28.1309 -175.976 -9.7382 -176.071 -7.39413 30.2838 2.57041 3.84895 -5.18982 -0.696665 -13.4409 8.39207 -6.10712 41.411 -47.0322 2.89046 -0.0 0.0 0.0 -0.0 0.0 0.0 1.15087e-14 -4.0632e-14 -6.8206e-14 48.2783 -6.50043 4.90292 -28.5352 -32.1224 54.409 -0.73665 -26.3984 -3.93119 -1.41607e-10 -5.31219e-09 -2.82157e-09 -1.76394e-10 -9.32321e-09 -4.87203e-09 -1.416e-10 -5.31218e-09 -2.82157e-09 7.73091 5.47488 0.417314 -1.41605e-10 -5.3122e-09 -2.82158e-09 2.90554 0.965183 0.102902 -1.41601e-10 -5.3122e-09 -2.82157e-09 10.2786 0.731801 0.0259123 -1.4161e-10 -5.3122e-09 -2.82156e-09 2.22167 -0.733487 -0.20892 1.14148e-14 -4.06326e-14 -6.83679e-14 -58.49 41.8369 13.4265 29.7911 -36.9097 -58.9708 0.400357 -19.9304 2.89109 1.67606e-09 3.92756e-09 3.75762e-09 2.8213e-09 6.69863e-09 6.52738e-09 1.67606e-09 3.92756e-09 3.75763e-09 -7.73091 5.47488 -0.417314 1.67606e-09 3.92756e-09 3.75762e-09 -2.90554 0.965183 -0.102902 1.67606e-09 3.92756e-09 3.75762e-09 -10.2786 0.731801 -0.0259123 1.67606e-09 3.92756e-09 3.75761e-09 -2.22167 -0.733487 0.20892 -2.03217e-16 0.0 -3.88251e-19 -22.3993 -33.2951 -26.225 -0.863482 52.8554 0.847526 -3.27756 -7.26336 -8.70121 2.03217e-16 0.0 3.88251e-19 21.7464 -36.6068 19.5547 0.543002 51.1625 -1.12451 -0.97398 -9.64357 -5.8377
